# AST/ASF file generated using VICON BodyLanguage
# -----------------------------------------------
:version 1.10
:name VICON
:units
  mass 1.0
  length 0.45
  angle deg
:documentation
   .ast/.asf automatically generated from VICON data using
   VICON BodyBuilder and BodyLanguage model FoxedUp or BRILLIANT.MOD
:root
   order TX TY TZ RX RY RZ
   axis XYZ
   position 0 0 0  
   orientation 0 0 0 
:bonedata
  begin
     id 1 
     name lhipjoint
     direction 0.577973 -0.728611 0.367523 
     length 2.48544 
     axis 0 0 0  XYZ
  end
  begin
     id 2 
     name lfemur
     direction 0.34202 -0.939693 0  
     length 7.1921  
     axis 0 0 20  XYZ
    dof rx ry rz
    limits (-160.0 20.0)
           (-70.0 70.0)
           (-60.0 70.0)
  end
  begin
     id 3 
     name ltibia
     direction 0.34202 -0.939693 0   
     length 7.71059   
     axis 0 0 20   XYZ
    dof rx
    limits (-10.0 170.0)
  end
  begin
     id 4 
     name lfoot
     direction 0.089538 -0.246004 0.965124   
     length 2.19909   
     axis -90 7.62852e-016 20   XYZ
    dof rx rz
    limits (-45.0 90.0)
           (-70.0 20.0)
  end
  begin
     id 5 
     name ltoes
     direction 1.53544e-011 -4.21829e-011 1   
     length 1.10116   
     axis -90 7.62852e-016 20   XYZ
    dof rx
    limits (-90.0 20.0)
  end
  begin
     id 6 
     name rhipjoint
     direction -0.554414 -0.743062 0.374812   
     length 2.4371  
     axis 0 0 0  XYZ 
  end
  begin
     id 7 
     name rfemur
     direction -0.34202 -0.939693 0   
     length 7.47254   
     axis 0 0 -20   XYZ
    dof rx ry rz
    limits (-160.0 20.0)
           (-70.0 70.0)
           (-70.0 60.0)
  end
  begin
     id 8 
     name rtibia
     direction -0.34202 -0.939693 0   
     length 7.65855   
     axis 0 0 -20   XYZ
    dof rx
    limits (-10.0 170.0)
 end
 begin
     id 9 
     name rfoot
     direction -0.133779 -0.367555 0.92033   
     length 2.43006  
     axis -90 -7.62852e-016 -20   XYZ
    dof rx rz
    limits (-45.0 90.0)
           (-20.0 70.0)
  end
  begin
     id 10 
     name rtoes
     direction -1.53563e-011 -4.21889e-011 1   
     length 1.19625   
     axis -90 -7.62852e-016 -20   XYZ
    dof rx
    limits (-90.0 20.0)
  end
  begin
     id 11 
     name lowerback
     direction 0.0249066 0.998043 -0.0573585   
     length 2.08485   
     axis 0 0 0   XYZ
    dof rx ry rz
    limits (-20.0 45.0)
           (-30.0 30.0)
           (-30.0 30.0)
  end
  begin
     id 12 
     name upperback
     direction 0.0237884 0.999673 0.00943178   
     length 2.08515   
     axis 0 0 0   XYZ
    dof rx ry rz
    limits (-20.0 45.0)
           (-30.0 30.0)
           (-30.0 30.0)
  end
  begin
     id 13 
     name thorax
     direction 0.0106671 0.999301 0.0358174   
     length 2.09037   
     axis 0 0 0   XYZ
    dof rx ry rz
    limits (-20.0 45.0)
           (-30.0 30.0)
           (-30.0 30.0)
  end
  begin
     id 14 
     name lowerneck
     direction -0.0580016 0.987052 0.149546   
     length 1.84454   
     axis 0 0 0   XYZ
    dof rx ry rz
    limits (-20.0 45.0)
           (-30.0 30.0)
           (-30.0 30.0)
  end
  begin
     id 15 
     name upperneck
     direction 0.079456 0.981963 -0.171567   
     length 1.88141   
     axis 0 0 0   XYZ
    dof rx ry rz
    limits (-20.0 45.0)
           (-30.0 30.0)
           (-30.0 30.0)
  end
  begin
     id 16
     name head
     direction 0.0262167 0.9967 -0.0768276  
     length 1.89541  
     axis 0 0 0   XYZ
    dof rx ry rz
    limits (-20.0 45.0)
           (-30.0 30.0)
           (-30.0 30.0)
  end
  begin
     id 17 
     name lclavicle
     direction 0.946135 0.322134 -0.0325326  
     length 3.949  
     axis 0 0 0   XYZ
    dof ry rz
    limits (-20.0 10.0)
           (0.0 20.0)
  end
  begin
     id 18 
     name lhumerus
     direction 1 -4.48964e-011 1.94005e-028   
     length 5.10995   
     axis 180 -30 -90   XYZ
    dof rx ry rz
    limits (-60.0 90.0)
           (-90.0 90.0)
           (-90.0 90.0)
  end
  begin
     id 19
     name lradius
     direction 1 -4.48976e-011 2.87852e-027   
     length 3.21207   
     axis 180 -30 -90   XYZ
    dof rx
    limits (-10.0 170.0)
  end
  begin
     id 20
     name lwrist
     direction 1 -4.48963e-011 1.9975e-027   
     length 1.60604   
     axis 2.96054e-016 90 90   XYZ
    dof ry
    limits (-180.0 0.0)
 end
  begin
     id 21 
     name lhand
     direction 1 -4.48919e-011 4.00227e-027   
     length 0.63349   
     axis -2.5488e-015 90 90   XYZ
    dof rx rz
    limits (-90.0 90.0)
           (-45.0 45.0)
  end
  begin
     id 22 
     name lfingers
     direction 1 -4.49037e-011 7.9652e-027   
     length 0.510736   
     axis -5.0975e-015 90 90   XYZ
    dof rx
    limits (0.0 90.0)
  end
  begin
     id 23
     name lthumb
     direction 0.707107 -6.34922e-011 0.707107   
     length 0.733318   
     axis -90 45 -4.48553e-014   XYZ
    dof rx rz
    limits (-45.0 45.0)
           (-45.0 45.0)
  end
  begin
     id 24 
     name rclavicle
     direction -0.940085 0.328911 -0.0897654   
     length 3.93848  
     axis 0 0 0   XYZ 
    dof ry rz
    limits (-10.0 20.0)
           (-20.0 0.0)
  end
  begin
     id 25 
     name rhumerus
     direction -1 -4.48958e-011 3.02044e-027  
     length 5.25109   
     axis 180 30 90   XYZ
    dof rx ry rz
    limits (-90.0 60.0)
           (-90.0 90.0)
           (-90.0 90.0)
  end
  begin
     id 26 
     name rradius
     direction -1 -4.4897e-011 9.78352e-028   
     length 3.28364   
     axis 180 30 90   XYZ
    dof rx
    limits (-10.0 170.0)
  end
  begin
     id 27 
     name rwrist
     direction -1 -4.48943e-011 1.99918e-027   
     length 1.64182   
     axis 2.96054e-016 -90 -90   XYZ
    dof ry
    limits (-180.0 0.0)
  end
  begin
     id 28
     name rhand
     direction -1 -4.49024e-011 3.98478e-027   
     length 0.599745   
     axis -2.5488e-015 -90 -90   XYZ
    dof rx rz
    limits (-90.0 90.0)
           (-45.0 45.0)
  end
  begin
     id 29
     name rfingers
     direction -1 -4.48914e-011 8.00621e-027   
     length 0.48353   
     axis -5.0975e-015 -90 -90   XYZ
    dof rx
    limits (0.0 90.0)
  end
  begin
     id 30
     name rthumb
     direction -0.707107 -6.34992e-011 0.707107   
     length 0.694255   
     axis -90 -45 4.48553e-014   XYZ
    dof rx rz
    limits (-45.0 45.0)
           (-45.0 45.0)
  end
:hierarchy
  begin
    root lhipjoint rhipjoint lowerback
    lhipjoint lfemur
    lfemur ltibia
    ltibia lfoot
    lfoot ltoes
    rhipjoint rfemur
    rfemur rtibia
    rtibia rfoot
    rfoot rtoes
    lowerback upperback
    upperback thorax
    thorax lowerneck lclavicle rclavicle
    lowerneck upperneck
    upperneck head
    lclavicle lhumerus
    lhumerus lradius
    lradius lwrist
    lwrist lhand lthumb
    lhand lfingers
    rclavicle rhumerus
    rhumerus rradius
    rradius rwrist
    rwrist rhand rthumb
    rhand rfingers
  end

#!OML:ASF E:\CV Data\Top Level 1\Subject 1\Session 1\player.ASF
:FULLY-SPECIFIED
:DEGREES
17
root 5.10137 15.4388 16.1287 -2.62247 -3.87739 -4.5782
lowerback 7.16998 0.782182 2.4185
upperback 0.201221 1.34853 2.75862
thorax -3.82632 0.64905 1.357
lowerneck -21.5776 -7.53715 -10.1883
upperneck 18.2189 -9.33953 9.25448
head 10.3162 -3.97657 3.49578
rclavicle -9.10061e-015 -2.3059e-014
rhumerus 28.7733 -0.0703777 -66.3585
rradius 76.4813
rwrist 13.2117
rhand 10.9699 -7.56159
rfingers 7.12502
rthumb 36.0457 -33.8669
lclavicle -9.10061e-015 -2.3059e-014
lhumerus 18.0125 3.2904 73.6433
lradius 85.2896
lwrist -28.4536
lhand 8.89994 9.90469
lfingers 7.12502
lthumb 34.0822 36.6702
rfemur -23.2575 -7.59694 19.7478
rtibia 65.7196
rfoot -35.5237 -6.39676
rtoes -11.6079
lfemur -22.5389 11.6021 -8.93242
ltibia 62.9942
lfoot -32.0461 -1.34505
ltoes -13.2302
18
root 5.10064 15.4398 16.128 -2.60325 -3.85772 -4.59195
lowerback 7.17408 0.780118 2.42593
upperback 0.195573 1.34688 2.76051
thorax -3.83436 0.648044 1.35489
lowerneck -21.5802 -7.53424 -10.1887
upperneck 18.1916 -9.33401 9.25993
head 10.3066 -3.97358 3.49846
rclavicle -2.42455e-014 8.34896e-015
rhumerus 28.7616 -0.0707434 -66.3542
rradius 76.4863
rwrist 13.2153
rhand 10.9399 -7.55383
rfingers 7.12502
rthumb 36.0172 -33.8661
lclavicle -2.42455e-014 8.34896e-015
lhumerus 17.9884 3.27803 73.6459
lradius 85.2822
lwrist -28.4435
lhand 8.88096 9.88968
lfingers 7.12502
lthumb 34.0642 36.6592
rfemur -23.2749 -7.61173 19.7686
rtibia 65.7091
rfoot -35.5102 -6.39947
rtoes -11.6131
lfemur -22.5694 11.6048 -8.91983
ltibia 62.9924
lfoot -32.0376 -1.36211
ltoes -13.2128
19
root 5.09999 15.4407 16.1273 -2.5851 -3.83932 -4.6032
lowerback 7.17854 0.778123 2.43163
upperback 0.190431 1.34515 2.76193
thorax -3.84211 0.647032 1.35327
lowerneck -21.5877 -7.5294 -10.1854
upperneck 18.1667 -9.3259 9.26239
head 10.2981 -3.96933 3.49985
rclavicle 5.13113e-015 1.94809e-014
rhumerus 28.7547 -0.0717068 -66.3494
rradius 76.4924
rwrist 13.214
rhand 10.9182 -7.55278
rfingers 7.12502
rthumb 35.9967 -33.8701
lclavicle 5.13113e-015 1.94809e-014
lhumerus 17.9646 3.26789 73.6469
lradius 85.2754
lwrist -28.4328
lhand 8.85658 9.8779
lfingers 7.12502
lthumb 34.0411 36.6525
rfemur -23.2915 -7.62801 19.7856
rtibia 65.6999
rfoot -35.4998 -6.39991
rtoes -11.6179
lfemur -22.598 11.606 -8.91003
ltibia 62.9903
lfoot -32.0299 -1.38043
ltoes -13.1848
20
root 5.09942 15.4416 16.1267 -2.56822 -3.82215 -4.61168
lowerback 7.18321 0.775944 2.4357
upperback 0.186899 1.34295 2.76233
thorax -3.8483 0.645818 1.35156
lowerneck -21.6013 -7.52304 -10.1774
upperneck 18.1433 -9.31565 9.26043
head 10.2904 -3.96407 3.49913
rclavicle 5.56286e-015 3.18055e-015
rhumerus 28.7546 -0.074384 -66.347
rradius 76.4985
rwrist 13.2033
rhand 10.9041 -7.55786
rfingers 7.12502
rthumb 35.9834 -33.8785
lclavicle 5.56286e-015 3.18055e-015
lhumerus 17.9429 3.26124 73.646
lradius 85.2709
lwrist -28.4257
lhand 8.83165 9.86937
lfingers 7.12502
lthumb 34.0174 36.6493
rfemur -23.3068 -7.64595 19.7984
rtibia 65.6918
rfoot -35.4928 -6.39689
rtoes -11.6227
lfemur -22.6239 11.6064 -8.90357
ltibia 62.9871
lfoot -32.0229 -1.39528
ltoes -13.1579
21
root 5.09896 15.4425 16.1263 -2.55497 -3.80863 -4.61352
lowerback 7.18948 0.774652 2.43431
upperback 0.187292 1.34132 2.76093
thorax -3.8514 0.645003 1.35098
lowerneck -21.626 -7.51781 -10.1711
upperneck 18.1277 -9.30609 9.25902
head 10.2879 -3.95877 3.49862
rclavicle 1.72259e-014 2.94201e-014
rhumerus 28.7642 -0.0814887 -66.3484
rradius 76.4974
rwrist 13.19
rhand 10.8926 -7.56015
rfingers 7.12502
rthumb 35.9724 -33.8834
lclavicle 1.72259e-014 2.94201e-014
lhumerus 17.9257 3.26076 73.6439
lradius 85.2704
lwrist -28.4227
lhand 8.81551 9.85903
lfingers 7.12502
lthumb 34.002 36.6423
rfemur -23.3173 -7.66324 19.8019
rtibia 65.6837
rfoot -35.4898 -6.39026
rtoes -11.628
lfemur -22.6421 11.6065 -8.90422
ltibia 62.981
lfoot -32.0166 -1.40662
ltoes -13.1363
